<mxfile host="app.diagrams.net" agent="Mozilla/5.0 (Windows NT 10.0; Win64; x64) AppleWebKit/537.36 (KHTML, like Gecko) Chrome/129.0.0.0 Safari/537.36" version="24.7.16">
  <diagram name="Страница — 1" id="b04FfaQr5xAPICmIaSRT">
    <mxGraphModel dx="1193" dy="815" grid="1" gridSize="10" guides="1" tooltips="1" connect="1" arrows="1" fold="1" page="0" pageScale="1" pageWidth="827" pageHeight="1169" math="0" shadow="0">
      <root>
        <mxCell id="0" />
        <mxCell id="1" parent="0" />
        <mxCell id="_Ee8m6xeoPtE4tR5qf7S-1" value="&lt;font style=&quot;font-size: 24px;&quot;&gt;1&lt;/font&gt;" style="text;html=1;align=center;verticalAlign=middle;whiteSpace=wrap;rounded=0;strokeWidth=1;" vertex="1" parent="1">
          <mxGeometry x="190" y="210" width="60" height="30" as="geometry" />
        </mxCell>
        <mxCell id="_Ee8m6xeoPtE4tR5qf7S-2" value="&lt;font style=&quot;font-size: 24px;&quot;&gt;1&lt;/font&gt;" style="text;html=1;align=center;verticalAlign=middle;whiteSpace=wrap;rounded=0;fontSize=18;strokeWidth=1;" vertex="1" parent="1">
          <mxGeometry x="230" y="210" width="60" height="30" as="geometry" />
        </mxCell>
        <mxCell id="_Ee8m6xeoPtE4tR5qf7S-3" value="&lt;font style=&quot;font-size: 24px;&quot;&gt;0&lt;/font&gt;" style="text;html=1;align=center;verticalAlign=middle;whiteSpace=wrap;rounded=0;strokeWidth=1;" vertex="1" parent="1">
          <mxGeometry x="270" y="210" width="60" height="30" as="geometry" />
        </mxCell>
        <mxCell id="_Ee8m6xeoPtE4tR5qf7S-4" value="&lt;font style=&quot;font-size: 24px;&quot;&gt;0&lt;/font&gt;" style="text;html=1;align=center;verticalAlign=middle;whiteSpace=wrap;rounded=0;strokeWidth=1;" vertex="1" parent="1">
          <mxGeometry x="310" y="210" width="60" height="30" as="geometry" />
        </mxCell>
        <mxCell id="_Ee8m6xeoPtE4tR5qf7S-5" value="&lt;font style=&quot;font-size: 24px;&quot;&gt;0&lt;/font&gt;" style="text;html=1;align=center;verticalAlign=middle;whiteSpace=wrap;rounded=0;strokeWidth=1;" vertex="1" parent="1">
          <mxGeometry x="350" y="210" width="60" height="30" as="geometry" />
        </mxCell>
        <mxCell id="_Ee8m6xeoPtE4tR5qf7S-6" value="&lt;span style=&quot;font-size: 24px;&quot;&gt;0&lt;/span&gt;" style="text;html=1;align=center;verticalAlign=middle;whiteSpace=wrap;rounded=0;strokeWidth=1;" vertex="1" parent="1">
          <mxGeometry x="390" y="210" width="60" height="30" as="geometry" />
        </mxCell>
        <mxCell id="_Ee8m6xeoPtE4tR5qf7S-7" value="&lt;span style=&quot;font-size: 24px;&quot;&gt;0&lt;/span&gt;" style="text;html=1;align=center;verticalAlign=middle;whiteSpace=wrap;rounded=0;strokeWidth=1;" vertex="1" parent="1">
          <mxGeometry x="430" y="210" width="60" height="30" as="geometry" />
        </mxCell>
        <mxCell id="_Ee8m6xeoPtE4tR5qf7S-8" value="&lt;span style=&quot;font-size: 24px;&quot;&gt;1&lt;/span&gt;" style="text;html=1;align=center;verticalAlign=middle;whiteSpace=wrap;rounded=0;strokeWidth=1;" vertex="1" parent="1">
          <mxGeometry x="470" y="210" width="60" height="30" as="geometry" />
        </mxCell>
        <mxCell id="_Ee8m6xeoPtE4tR5qf7S-9" value="&lt;span style=&quot;font-size: 24px;&quot;&gt;1&lt;/span&gt;" style="text;html=1;align=center;verticalAlign=middle;whiteSpace=wrap;rounded=0;strokeWidth=1;" vertex="1" parent="1">
          <mxGeometry x="510" y="210" width="60" height="30" as="geometry" />
        </mxCell>
        <mxCell id="_Ee8m6xeoPtE4tR5qf7S-10" value="&lt;font style=&quot;font-size: 24px;&quot;&gt;1&lt;/font&gt;" style="text;html=1;align=center;verticalAlign=middle;whiteSpace=wrap;rounded=0;strokeWidth=1;" vertex="1" parent="1">
          <mxGeometry x="550" y="210" width="60" height="30" as="geometry" />
        </mxCell>
        <mxCell id="_Ee8m6xeoPtE4tR5qf7S-11" value="&lt;span style=&quot;font-size: 24px;&quot;&gt;1&lt;/span&gt;" style="text;html=1;align=center;verticalAlign=middle;whiteSpace=wrap;rounded=0;strokeWidth=1;" vertex="1" parent="1">
          <mxGeometry x="590" y="210" width="60" height="30" as="geometry" />
        </mxCell>
        <mxCell id="_Ee8m6xeoPtE4tR5qf7S-12" value="&lt;span style=&quot;font-size: 24px;&quot;&gt;0&lt;/span&gt;" style="text;html=1;align=center;verticalAlign=middle;whiteSpace=wrap;rounded=0;strokeWidth=1;" vertex="1" parent="1">
          <mxGeometry x="630" y="210" width="60" height="30" as="geometry" />
        </mxCell>
        <mxCell id="_Ee8m6xeoPtE4tR5qf7S-13" value="&lt;span style=&quot;font-size: 24px;&quot;&gt;0&lt;/span&gt;" style="text;html=1;align=center;verticalAlign=middle;whiteSpace=wrap;rounded=0;strokeWidth=1;" vertex="1" parent="1">
          <mxGeometry x="670" y="210" width="60" height="30" as="geometry" />
        </mxCell>
        <mxCell id="_Ee8m6xeoPtE4tR5qf7S-14" value="&lt;span style=&quot;font-size: 24px;&quot;&gt;0&lt;/span&gt;" style="text;html=1;align=center;verticalAlign=middle;whiteSpace=wrap;rounded=0;strokeWidth=1;" vertex="1" parent="1">
          <mxGeometry x="710" y="210" width="60" height="30" as="geometry" />
        </mxCell>
        <mxCell id="_Ee8m6xeoPtE4tR5qf7S-15" value="&lt;span style=&quot;font-size: 24px;&quot;&gt;0&lt;/span&gt;" style="text;html=1;align=center;verticalAlign=middle;whiteSpace=wrap;rounded=0;strokeWidth=1;" vertex="1" parent="1">
          <mxGeometry x="750" y="210" width="60" height="30" as="geometry" />
        </mxCell>
        <mxCell id="_Ee8m6xeoPtE4tR5qf7S-16" value="&lt;span style=&quot;font-size: 24px;&quot;&gt;0&lt;/span&gt;" style="text;html=1;align=center;verticalAlign=middle;whiteSpace=wrap;rounded=0;strokeWidth=1;" vertex="1" parent="1">
          <mxGeometry x="790" y="210" width="60" height="30" as="geometry" />
        </mxCell>
        <mxCell id="_Ee8m6xeoPtE4tR5qf7S-17" value="&lt;font style=&quot;font-size: 24px;&quot;&gt;1&lt;/font&gt;" style="text;html=1;align=center;verticalAlign=middle;whiteSpace=wrap;rounded=0;strokeWidth=1;" vertex="1" parent="1">
          <mxGeometry x="827" y="210" width="60" height="30" as="geometry" />
        </mxCell>
        <mxCell id="_Ee8m6xeoPtE4tR5qf7S-18" value="&lt;span style=&quot;font-size: 24px;&quot;&gt;1&lt;/span&gt;" style="text;html=1;align=center;verticalAlign=middle;whiteSpace=wrap;rounded=0;strokeWidth=1;" vertex="1" parent="1">
          <mxGeometry x="870" y="210" width="60" height="30" as="geometry" />
        </mxCell>
        <mxCell id="_Ee8m6xeoPtE4tR5qf7S-19" value="&lt;font style=&quot;font-size: 24px;&quot;&gt;0&lt;/font&gt;" style="text;html=1;align=center;verticalAlign=middle;whiteSpace=wrap;rounded=0;strokeWidth=1;" vertex="1" parent="1">
          <mxGeometry x="910" y="210" width="60" height="30" as="geometry" />
        </mxCell>
        <mxCell id="_Ee8m6xeoPtE4tR5qf7S-20" value="&lt;span style=&quot;font-size: 24px;&quot;&gt;1&lt;/span&gt;" style="text;html=1;align=center;verticalAlign=middle;whiteSpace=wrap;rounded=0;strokeWidth=1;" vertex="1" parent="1">
          <mxGeometry x="950" y="210" width="60" height="30" as="geometry" />
        </mxCell>
        <mxCell id="_Ee8m6xeoPtE4tR5qf7S-21" value="&lt;span style=&quot;font-size: 24px;&quot;&gt;0&lt;/span&gt;" style="text;html=1;align=center;verticalAlign=middle;whiteSpace=wrap;rounded=0;strokeWidth=1;" vertex="1" parent="1">
          <mxGeometry x="990" y="210" width="60" height="30" as="geometry" />
        </mxCell>
        <mxCell id="_Ee8m6xeoPtE4tR5qf7S-22" value="&lt;span style=&quot;font-size: 24px;&quot;&gt;0&lt;/span&gt;" style="text;html=1;align=center;verticalAlign=middle;whiteSpace=wrap;rounded=0;strokeWidth=1;" vertex="1" parent="1">
          <mxGeometry x="1030" y="210" width="60" height="30" as="geometry" />
        </mxCell>
        <mxCell id="_Ee8m6xeoPtE4tR5qf7S-23" value="&lt;span style=&quot;font-size: 24px;&quot;&gt;0&lt;/span&gt;" style="text;html=1;align=center;verticalAlign=middle;whiteSpace=wrap;rounded=0;strokeWidth=1;" vertex="1" parent="1">
          <mxGeometry x="1070" y="210" width="60" height="30" as="geometry" />
        </mxCell>
        <mxCell id="_Ee8m6xeoPtE4tR5qf7S-24" value="&lt;span style=&quot;font-size: 24px;&quot;&gt;0&lt;/span&gt;" style="text;html=1;align=center;verticalAlign=middle;whiteSpace=wrap;rounded=0;strokeWidth=1;" vertex="1" parent="1">
          <mxGeometry x="1110" y="210" width="60" height="30" as="geometry" />
        </mxCell>
        <mxCell id="_Ee8m6xeoPtE4tR5qf7S-25" value="&lt;span style=&quot;font-size: 24px;&quot;&gt;0&lt;/span&gt;" style="text;html=1;align=center;verticalAlign=middle;whiteSpace=wrap;rounded=0;strokeWidth=1;" vertex="1" parent="1">
          <mxGeometry x="1270" y="210" width="60" height="30" as="geometry" />
        </mxCell>
        <mxCell id="_Ee8m6xeoPtE4tR5qf7S-26" value="&lt;span style=&quot;font-size: 24px;&quot;&gt;0&lt;/span&gt;" style="text;html=1;align=center;verticalAlign=middle;whiteSpace=wrap;rounded=0;strokeWidth=1;" vertex="1" parent="1">
          <mxGeometry x="1230" y="210" width="60" height="30" as="geometry" />
        </mxCell>
        <mxCell id="_Ee8m6xeoPtE4tR5qf7S-27" value="&lt;font style=&quot;font-size: 24px;&quot;&gt;1&lt;/font&gt;" style="text;html=1;align=center;verticalAlign=middle;whiteSpace=wrap;rounded=0;strokeWidth=1;" vertex="1" parent="1">
          <mxGeometry x="1150" y="210" width="60" height="30" as="geometry" />
        </mxCell>
        <mxCell id="_Ee8m6xeoPtE4tR5qf7S-28" value="&lt;span style=&quot;font-size: 24px;&quot;&gt;1&lt;/span&gt;" style="text;html=1;align=center;verticalAlign=middle;whiteSpace=wrap;rounded=0;strokeWidth=1;" vertex="1" parent="1">
          <mxGeometry x="1190" y="210" width="60" height="30" as="geometry" />
        </mxCell>
        <mxCell id="_Ee8m6xeoPtE4tR5qf7S-29" value="&lt;span style=&quot;font-size: 24px;&quot;&gt;0&lt;/span&gt;" style="text;html=1;align=center;verticalAlign=middle;whiteSpace=wrap;rounded=0;strokeWidth=1;" vertex="1" parent="1">
          <mxGeometry x="1310" y="210" width="60" height="30" as="geometry" />
        </mxCell>
        <mxCell id="_Ee8m6xeoPtE4tR5qf7S-30" value="&lt;span style=&quot;font-size: 24px;&quot;&gt;1&lt;/span&gt;" style="text;html=1;align=center;verticalAlign=middle;whiteSpace=wrap;rounded=0;strokeWidth=1;" vertex="1" parent="1">
          <mxGeometry x="1350" y="210" width="60" height="30" as="geometry" />
        </mxCell>
        <mxCell id="_Ee8m6xeoPtE4tR5qf7S-31" value="&lt;span style=&quot;font-size: 24px;&quot;&gt;0&lt;/span&gt;" style="text;html=1;align=center;verticalAlign=middle;whiteSpace=wrap;rounded=0;strokeWidth=1;" vertex="1" parent="1">
          <mxGeometry x="1390" y="210" width="60" height="30" as="geometry" />
        </mxCell>
        <mxCell id="_Ee8m6xeoPtE4tR5qf7S-32" value="&lt;span style=&quot;font-size: 24px;&quot;&gt;0&lt;/span&gt;" style="text;html=1;align=center;verticalAlign=middle;whiteSpace=wrap;rounded=0;strokeWidth=1;" vertex="1" parent="1">
          <mxGeometry x="1430" y="210" width="60" height="30" as="geometry" />
        </mxCell>
        <mxCell id="_Ee8m6xeoPtE4tR5qf7S-33" value="" style="endArrow=none;dashed=1;html=1;rounded=0;opacity=40;" edge="1" parent="1">
          <mxGeometry width="50" height="50" relative="1" as="geometry">
            <mxPoint x="200" y="120" as="sourcePoint" />
            <mxPoint x="200" y="480" as="targetPoint" />
          </mxGeometry>
        </mxCell>
        <mxCell id="_Ee8m6xeoPtE4tR5qf7S-34" value="" style="endArrow=none;dashed=1;html=1;rounded=0;opacity=40;" edge="1" parent="1">
          <mxGeometry width="50" height="50" relative="1" as="geometry">
            <mxPoint x="1160" y="120" as="sourcePoint" />
            <mxPoint x="1160" y="480" as="targetPoint" />
          </mxGeometry>
        </mxCell>
        <mxCell id="_Ee8m6xeoPtE4tR5qf7S-35" value="" style="endArrow=none;dashed=1;html=1;rounded=0;opacity=10;" edge="1" parent="1">
          <mxGeometry width="50" height="50" relative="1" as="geometry">
            <mxPoint x="240" y="120" as="sourcePoint" />
            <mxPoint x="240" y="480" as="targetPoint" />
          </mxGeometry>
        </mxCell>
        <mxCell id="_Ee8m6xeoPtE4tR5qf7S-36" value="" style="endArrow=none;dashed=1;html=1;rounded=0;opacity=40;" edge="1" parent="1">
          <mxGeometry width="50" height="50" relative="1" as="geometry">
            <mxPoint x="1120" y="120" as="sourcePoint" />
            <mxPoint x="1120" y="480" as="targetPoint" />
          </mxGeometry>
        </mxCell>
        <mxCell id="_Ee8m6xeoPtE4tR5qf7S-37" value="" style="endArrow=none;dashed=1;html=1;rounded=0;opacity=40;" edge="1" parent="1">
          <mxGeometry width="50" height="50" relative="1" as="geometry">
            <mxPoint x="1080" y="120" as="sourcePoint" />
            <mxPoint x="1080" y="480" as="targetPoint" />
          </mxGeometry>
        </mxCell>
        <mxCell id="_Ee8m6xeoPtE4tR5qf7S-38" value="" style="endArrow=none;dashed=1;html=1;rounded=0;opacity=40;" edge="1" parent="1">
          <mxGeometry width="50" height="50" relative="1" as="geometry">
            <mxPoint x="280" y="120" as="sourcePoint" />
            <mxPoint x="280" y="480" as="targetPoint" />
          </mxGeometry>
        </mxCell>
        <mxCell id="_Ee8m6xeoPtE4tR5qf7S-39" value="" style="endArrow=none;dashed=1;html=1;rounded=0;opacity=40;" edge="1" parent="1">
          <mxGeometry width="50" height="50" relative="1" as="geometry">
            <mxPoint x="1040" y="120" as="sourcePoint" />
            <mxPoint x="1040" y="480" as="targetPoint" />
          </mxGeometry>
        </mxCell>
        <mxCell id="_Ee8m6xeoPtE4tR5qf7S-40" value="" style="endArrow=none;dashed=1;html=1;rounded=0;opacity=40;" edge="1" parent="1">
          <mxGeometry width="50" height="50" relative="1" as="geometry">
            <mxPoint x="1000" y="120" as="sourcePoint" />
            <mxPoint x="1000" y="480" as="targetPoint" />
          </mxGeometry>
        </mxCell>
        <mxCell id="_Ee8m6xeoPtE4tR5qf7S-41" value="" style="endArrow=none;dashed=1;html=1;rounded=0;opacity=40;" edge="1" parent="1">
          <mxGeometry width="50" height="50" relative="1" as="geometry">
            <mxPoint x="960" y="120" as="sourcePoint" />
            <mxPoint x="960" y="480" as="targetPoint" />
          </mxGeometry>
        </mxCell>
        <mxCell id="_Ee8m6xeoPtE4tR5qf7S-42" value="" style="endArrow=none;dashed=1;html=1;rounded=0;opacity=40;" edge="1" parent="1">
          <mxGeometry width="50" height="50" relative="1" as="geometry">
            <mxPoint x="920" y="120" as="sourcePoint" />
            <mxPoint x="920" y="480" as="targetPoint" />
          </mxGeometry>
        </mxCell>
        <mxCell id="_Ee8m6xeoPtE4tR5qf7S-43" value="" style="endArrow=none;dashed=1;html=1;rounded=0;opacity=40;" edge="1" parent="1">
          <mxGeometry width="50" height="50" relative="1" as="geometry">
            <mxPoint x="320" y="120" as="sourcePoint" />
            <mxPoint x="320" y="480" as="targetPoint" />
          </mxGeometry>
        </mxCell>
        <mxCell id="_Ee8m6xeoPtE4tR5qf7S-44" value="" style="endArrow=none;dashed=1;html=1;rounded=0;opacity=40;" edge="1" parent="1">
          <mxGeometry width="50" height="50" relative="1" as="geometry">
            <mxPoint x="880" y="120" as="sourcePoint" />
            <mxPoint x="880" y="480" as="targetPoint" />
          </mxGeometry>
        </mxCell>
        <mxCell id="_Ee8m6xeoPtE4tR5qf7S-45" value="" style="endArrow=none;dashed=1;html=1;rounded=0;opacity=40;" edge="1" parent="1">
          <mxGeometry width="50" height="50" relative="1" as="geometry">
            <mxPoint x="840" y="120" as="sourcePoint" />
            <mxPoint x="840" y="480" as="targetPoint" />
          </mxGeometry>
        </mxCell>
        <mxCell id="_Ee8m6xeoPtE4tR5qf7S-46" value="" style="endArrow=none;dashed=1;html=1;rounded=0;opacity=40;" edge="1" parent="1">
          <mxGeometry width="50" height="50" relative="1" as="geometry">
            <mxPoint x="360" y="120" as="sourcePoint" />
            <mxPoint x="360" y="480" as="targetPoint" />
          </mxGeometry>
        </mxCell>
        <mxCell id="_Ee8m6xeoPtE4tR5qf7S-47" value="" style="endArrow=none;dashed=1;html=1;rounded=0;opacity=40;" edge="1" parent="1">
          <mxGeometry width="50" height="50" relative="1" as="geometry">
            <mxPoint x="800" y="120" as="sourcePoint" />
            <mxPoint x="800" y="480" as="targetPoint" />
          </mxGeometry>
        </mxCell>
        <mxCell id="_Ee8m6xeoPtE4tR5qf7S-48" value="" style="endArrow=none;dashed=1;html=1;rounded=0;opacity=40;" edge="1" parent="1">
          <mxGeometry width="50" height="50" relative="1" as="geometry">
            <mxPoint x="760" y="120" as="sourcePoint" />
            <mxPoint x="760" y="480" as="targetPoint" />
          </mxGeometry>
        </mxCell>
        <mxCell id="_Ee8m6xeoPtE4tR5qf7S-49" value="" style="endArrow=none;dashed=1;html=1;rounded=0;opacity=40;" edge="1" parent="1">
          <mxGeometry width="50" height="50" relative="1" as="geometry">
            <mxPoint x="400" y="120" as="sourcePoint" />
            <mxPoint x="400" y="480" as="targetPoint" />
          </mxGeometry>
        </mxCell>
        <mxCell id="_Ee8m6xeoPtE4tR5qf7S-50" value="" style="endArrow=none;dashed=1;html=1;rounded=0;opacity=40;" edge="1" parent="1">
          <mxGeometry width="50" height="50" relative="1" as="geometry">
            <mxPoint x="720" y="120" as="sourcePoint" />
            <mxPoint x="720" y="480" as="targetPoint" />
          </mxGeometry>
        </mxCell>
        <mxCell id="_Ee8m6xeoPtE4tR5qf7S-51" value="" style="endArrow=none;dashed=1;html=1;rounded=0;opacity=40;" edge="1" parent="1">
          <mxGeometry width="50" height="50" relative="1" as="geometry">
            <mxPoint x="680" y="120" as="sourcePoint" />
            <mxPoint x="680" y="480" as="targetPoint" />
          </mxGeometry>
        </mxCell>
        <mxCell id="_Ee8m6xeoPtE4tR5qf7S-52" value="" style="endArrow=none;dashed=1;html=1;rounded=0;opacity=40;" edge="1" parent="1">
          <mxGeometry width="50" height="50" relative="1" as="geometry">
            <mxPoint x="440" y="120" as="sourcePoint" />
            <mxPoint x="440" y="480" as="targetPoint" />
          </mxGeometry>
        </mxCell>
        <mxCell id="_Ee8m6xeoPtE4tR5qf7S-53" value="" style="endArrow=none;dashed=1;html=1;rounded=0;opacity=40;" edge="1" parent="1">
          <mxGeometry width="50" height="50" relative="1" as="geometry">
            <mxPoint x="640" y="120" as="sourcePoint" />
            <mxPoint x="640" y="480" as="targetPoint" />
          </mxGeometry>
        </mxCell>
        <mxCell id="_Ee8m6xeoPtE4tR5qf7S-54" value="" style="endArrow=none;dashed=1;html=1;rounded=0;opacity=40;" edge="1" parent="1">
          <mxGeometry width="50" height="50" relative="1" as="geometry">
            <mxPoint x="600" y="120" as="sourcePoint" />
            <mxPoint x="600" y="480" as="targetPoint" />
          </mxGeometry>
        </mxCell>
        <mxCell id="_Ee8m6xeoPtE4tR5qf7S-55" value="" style="endArrow=none;dashed=1;html=1;rounded=0;opacity=40;" edge="1" parent="1">
          <mxGeometry width="50" height="50" relative="1" as="geometry">
            <mxPoint x="480" y="120" as="sourcePoint" />
            <mxPoint x="480" y="480" as="targetPoint" />
          </mxGeometry>
        </mxCell>
        <mxCell id="_Ee8m6xeoPtE4tR5qf7S-56" value="" style="endArrow=none;dashed=1;html=1;rounded=0;opacity=40;" edge="1" parent="1">
          <mxGeometry width="50" height="50" relative="1" as="geometry">
            <mxPoint x="520" y="120" as="sourcePoint" />
            <mxPoint x="520" y="480" as="targetPoint" />
          </mxGeometry>
        </mxCell>
        <mxCell id="_Ee8m6xeoPtE4tR5qf7S-57" value="" style="endArrow=none;dashed=1;html=1;rounded=0;opacity=40;" edge="1" parent="1">
          <mxGeometry width="50" height="50" relative="1" as="geometry">
            <mxPoint x="560" y="120" as="sourcePoint" />
            <mxPoint x="560" y="480" as="targetPoint" />
          </mxGeometry>
        </mxCell>
        <mxCell id="_Ee8m6xeoPtE4tR5qf7S-58" value="" style="endArrow=none;dashed=1;html=1;rounded=0;opacity=40;" edge="1" parent="1">
          <mxGeometry width="50" height="50" relative="1" as="geometry">
            <mxPoint x="1440" y="120" as="sourcePoint" />
            <mxPoint x="1440" y="480" as="targetPoint" />
          </mxGeometry>
        </mxCell>
        <mxCell id="_Ee8m6xeoPtE4tR5qf7S-59" value="" style="endArrow=none;dashed=1;html=1;rounded=0;opacity=40;" edge="1" parent="1">
          <mxGeometry width="50" height="50" relative="1" as="geometry">
            <mxPoint x="1400" y="120" as="sourcePoint" />
            <mxPoint x="1400" y="480" as="targetPoint" />
          </mxGeometry>
        </mxCell>
        <mxCell id="_Ee8m6xeoPtE4tR5qf7S-60" value="" style="endArrow=none;dashed=1;html=1;rounded=0;opacity=40;" edge="1" parent="1">
          <mxGeometry width="50" height="50" relative="1" as="geometry">
            <mxPoint x="1360" y="120" as="sourcePoint" />
            <mxPoint x="1360" y="480" as="targetPoint" />
          </mxGeometry>
        </mxCell>
        <mxCell id="_Ee8m6xeoPtE4tR5qf7S-61" value="" style="endArrow=none;dashed=1;html=1;rounded=0;opacity=40;" edge="1" parent="1">
          <mxGeometry width="50" height="50" relative="1" as="geometry">
            <mxPoint x="1320" y="120" as="sourcePoint" />
            <mxPoint x="1320" y="480" as="targetPoint" />
          </mxGeometry>
        </mxCell>
        <mxCell id="_Ee8m6xeoPtE4tR5qf7S-62" value="" style="endArrow=none;dashed=1;html=1;rounded=0;opacity=40;" edge="1" parent="1">
          <mxGeometry width="50" height="50" relative="1" as="geometry">
            <mxPoint x="1280" y="120" as="sourcePoint" />
            <mxPoint x="1280" y="480" as="targetPoint" />
          </mxGeometry>
        </mxCell>
        <mxCell id="_Ee8m6xeoPtE4tR5qf7S-63" value="" style="endArrow=none;dashed=1;html=1;rounded=0;opacity=40;" edge="1" parent="1">
          <mxGeometry width="50" height="50" relative="1" as="geometry">
            <mxPoint x="1240" y="120" as="sourcePoint" />
            <mxPoint x="1240" y="480" as="targetPoint" />
          </mxGeometry>
        </mxCell>
        <mxCell id="_Ee8m6xeoPtE4tR5qf7S-64" value="" style="endArrow=none;dashed=1;html=1;rounded=0;opacity=40;" edge="1" parent="1">
          <mxGeometry width="50" height="50" relative="1" as="geometry">
            <mxPoint x="1200" y="120" as="sourcePoint" />
            <mxPoint x="1200" y="480" as="targetPoint" />
          </mxGeometry>
        </mxCell>
        <mxCell id="_Ee8m6xeoPtE4tR5qf7S-65" value="" style="endArrow=none;dashed=1;html=1;rounded=0;opacity=40;" edge="1" parent="1">
          <mxGeometry width="50" height="50" relative="1" as="geometry">
            <mxPoint x="1480" y="120" as="sourcePoint" />
            <mxPoint x="1480" y="480" as="targetPoint" />
          </mxGeometry>
        </mxCell>
        <mxCell id="_Ee8m6xeoPtE4tR5qf7S-66" value="" style="endArrow=none;html=1;rounded=0;" edge="1" parent="1">
          <mxGeometry width="50" height="50" relative="1" as="geometry">
            <mxPoint x="200" y="280" as="sourcePoint" />
            <mxPoint x="280" y="280" as="targetPoint" />
          </mxGeometry>
        </mxCell>
        <mxCell id="_Ee8m6xeoPtE4tR5qf7S-67" value="" style="endArrow=none;html=1;rounded=0;" edge="1" parent="1">
          <mxGeometry width="50" height="50" relative="1" as="geometry">
            <mxPoint x="280" y="440" as="sourcePoint" />
            <mxPoint x="280" y="280" as="targetPoint" />
          </mxGeometry>
        </mxCell>
        <mxCell id="_Ee8m6xeoPtE4tR5qf7S-68" value="" style="endArrow=none;html=1;rounded=0;" edge="1" parent="1">
          <mxGeometry width="50" height="50" relative="1" as="geometry">
            <mxPoint x="280" y="440" as="sourcePoint" />
            <mxPoint x="440" y="440" as="targetPoint" />
          </mxGeometry>
        </mxCell>
        <mxCell id="_Ee8m6xeoPtE4tR5qf7S-69" value="" style="endArrow=none;html=1;rounded=0;" edge="1" parent="1">
          <mxGeometry width="50" height="50" relative="1" as="geometry">
            <mxPoint x="440" y="440" as="sourcePoint" />
            <mxPoint x="440" y="400" as="targetPoint" />
          </mxGeometry>
        </mxCell>
        <mxCell id="_Ee8m6xeoPtE4tR5qf7S-70" value="" style="endArrow=none;html=1;rounded=0;" edge="1" parent="1">
          <mxGeometry width="50" height="50" relative="1" as="geometry">
            <mxPoint x="440" y="400" as="sourcePoint" />
            <mxPoint x="520" y="400" as="targetPoint" />
          </mxGeometry>
        </mxCell>
        <mxCell id="_Ee8m6xeoPtE4tR5qf7S-71" value="" style="endArrow=none;html=1;rounded=0;" edge="1" parent="1">
          <mxGeometry width="50" height="50" relative="1" as="geometry">
            <mxPoint x="520" y="400" as="sourcePoint" />
            <mxPoint x="520" y="280" as="targetPoint" />
          </mxGeometry>
        </mxCell>
        <mxCell id="_Ee8m6xeoPtE4tR5qf7S-72" value="" style="endArrow=none;html=1;rounded=0;" edge="1" parent="1">
          <mxGeometry width="50" height="50" relative="1" as="geometry">
            <mxPoint x="520" y="280" as="sourcePoint" />
            <mxPoint x="600" y="280" as="targetPoint" />
          </mxGeometry>
        </mxCell>
        <mxCell id="_Ee8m6xeoPtE4tR5qf7S-73" value="" style="endArrow=none;html=1;rounded=0;" edge="1" parent="1">
          <mxGeometry width="50" height="50" relative="1" as="geometry">
            <mxPoint x="600" y="280" as="sourcePoint" />
            <mxPoint x="600" y="320" as="targetPoint" />
          </mxGeometry>
        </mxCell>
        <mxCell id="_Ee8m6xeoPtE4tR5qf7S-74" value="" style="endArrow=none;html=1;rounded=0;" edge="1" parent="1">
          <mxGeometry width="50" height="50" relative="1" as="geometry">
            <mxPoint x="600" y="320" as="sourcePoint" />
            <mxPoint x="680" y="320" as="targetPoint" />
          </mxGeometry>
        </mxCell>
        <mxCell id="_Ee8m6xeoPtE4tR5qf7S-75" value="" style="endArrow=none;html=1;rounded=0;" edge="1" parent="1">
          <mxGeometry width="50" height="50" relative="1" as="geometry">
            <mxPoint x="680" y="440" as="sourcePoint" />
            <mxPoint x="680" y="320" as="targetPoint" />
          </mxGeometry>
        </mxCell>
        <mxCell id="_Ee8m6xeoPtE4tR5qf7S-76" value="" style="endArrow=none;html=1;rounded=0;" edge="1" parent="1">
          <mxGeometry width="50" height="50" relative="1" as="geometry">
            <mxPoint x="840" y="440" as="sourcePoint" />
            <mxPoint x="680" y="440" as="targetPoint" />
          </mxGeometry>
        </mxCell>
        <mxCell id="_Ee8m6xeoPtE4tR5qf7S-77" value="" style="endArrow=none;html=1;rounded=0;" edge="1" parent="1">
          <mxGeometry width="50" height="50" relative="1" as="geometry">
            <mxPoint x="840" y="280" as="sourcePoint" />
            <mxPoint x="840" y="440" as="targetPoint" />
          </mxGeometry>
        </mxCell>
        <mxCell id="_Ee8m6xeoPtE4tR5qf7S-78" value="" style="endArrow=none;html=1;rounded=0;" edge="1" parent="1">
          <mxGeometry width="50" height="50" relative="1" as="geometry">
            <mxPoint x="840" y="280" as="sourcePoint" />
            <mxPoint x="920" y="280" as="targetPoint" />
          </mxGeometry>
        </mxCell>
        <mxCell id="_Ee8m6xeoPtE4tR5qf7S-79" value="" style="endArrow=none;html=1;rounded=0;" edge="1" parent="1">
          <mxGeometry width="50" height="50" relative="1" as="geometry">
            <mxPoint x="920" y="400" as="sourcePoint" />
            <mxPoint x="920" y="280" as="targetPoint" />
          </mxGeometry>
        </mxCell>
        <mxCell id="_Ee8m6xeoPtE4tR5qf7S-80" value="" style="endArrow=none;html=1;rounded=0;" edge="1" parent="1">
          <mxGeometry width="50" height="50" relative="1" as="geometry">
            <mxPoint x="920" y="400" as="sourcePoint" />
            <mxPoint x="1000" y="400" as="targetPoint" />
          </mxGeometry>
        </mxCell>
        <mxCell id="_Ee8m6xeoPtE4tR5qf7S-81" value="" style="endArrow=none;html=1;rounded=0;" edge="1" parent="1">
          <mxGeometry width="50" height="50" relative="1" as="geometry">
            <mxPoint x="1000" y="440" as="sourcePoint" />
            <mxPoint x="1000" y="400" as="targetPoint" />
          </mxGeometry>
        </mxCell>
        <mxCell id="_Ee8m6xeoPtE4tR5qf7S-82" value="" style="endArrow=none;html=1;rounded=0;" edge="1" parent="1">
          <mxGeometry width="50" height="50" relative="1" as="geometry">
            <mxPoint x="1000" y="440" as="sourcePoint" />
            <mxPoint x="1160" y="440" as="targetPoint" />
          </mxGeometry>
        </mxCell>
        <mxCell id="_Ee8m6xeoPtE4tR5qf7S-83" value="" style="endArrow=none;html=1;rounded=0;" edge="1" parent="1">
          <mxGeometry width="50" height="50" relative="1" as="geometry">
            <mxPoint x="1160" y="440" as="sourcePoint" />
            <mxPoint x="1160" y="280" as="targetPoint" />
          </mxGeometry>
        </mxCell>
        <mxCell id="_Ee8m6xeoPtE4tR5qf7S-84" value="" style="endArrow=none;html=1;rounded=0;" edge="1" parent="1">
          <mxGeometry width="50" height="50" relative="1" as="geometry">
            <mxPoint x="1240" y="280" as="sourcePoint" />
            <mxPoint x="1160" y="280" as="targetPoint" />
          </mxGeometry>
        </mxCell>
        <mxCell id="_Ee8m6xeoPtE4tR5qf7S-85" value="" style="endArrow=none;html=1;rounded=0;" edge="1" parent="1">
          <mxGeometry width="50" height="50" relative="1" as="geometry">
            <mxPoint x="1240" y="440" as="sourcePoint" />
            <mxPoint x="1240" y="280" as="targetPoint" />
          </mxGeometry>
        </mxCell>
        <mxCell id="_Ee8m6xeoPtE4tR5qf7S-86" value="" style="endArrow=none;html=1;rounded=0;" edge="1" parent="1">
          <mxGeometry width="50" height="50" relative="1" as="geometry">
            <mxPoint x="1240" y="440" as="sourcePoint" />
            <mxPoint x="1320" y="440" as="targetPoint" />
          </mxGeometry>
        </mxCell>
        <mxCell id="_Ee8m6xeoPtE4tR5qf7S-87" value="" style="endArrow=none;html=1;rounded=0;" edge="1" parent="1">
          <mxGeometry width="50" height="50" relative="1" as="geometry">
            <mxPoint x="1320" y="400" as="sourcePoint" />
            <mxPoint x="1320" y="440" as="targetPoint" />
          </mxGeometry>
        </mxCell>
        <mxCell id="_Ee8m6xeoPtE4tR5qf7S-88" value="" style="endArrow=none;html=1;rounded=0;" edge="1" parent="1">
          <mxGeometry width="50" height="50" relative="1" as="geometry">
            <mxPoint x="1320" y="400" as="sourcePoint" />
            <mxPoint x="1400" y="400" as="targetPoint" />
          </mxGeometry>
        </mxCell>
        <mxCell id="_Ee8m6xeoPtE4tR5qf7S-89" value="" style="endArrow=none;html=1;rounded=0;" edge="1" parent="1">
          <mxGeometry width="50" height="50" relative="1" as="geometry">
            <mxPoint x="1400" y="440" as="sourcePoint" />
            <mxPoint x="1400" y="400" as="targetPoint" />
          </mxGeometry>
        </mxCell>
        <mxCell id="_Ee8m6xeoPtE4tR5qf7S-90" value="" style="endArrow=none;html=1;rounded=0;" edge="1" parent="1">
          <mxGeometry width="50" height="50" relative="1" as="geometry">
            <mxPoint x="1400" y="440" as="sourcePoint" />
            <mxPoint x="1480" y="440" as="targetPoint" />
          </mxGeometry>
        </mxCell>
      </root>
    </mxGraphModel>
  </diagram>
</mxfile>
